# xmcd CD database file
#
# Track frame offsets:
#	150
#	26132
#	48262
#	74752
#	96750
#	120705
#	151207
#	180582
#
# Disc length: 2689 seconds
#
# Revision: 0
# Processed by: cddbd v1.4PL0 Copyright (c) Steve Scherf et al.
# Submitted via: CDex 1.50beta10
#
DISCID=680a7f08
DTITLE=Shelly Manne - Perk Up
DYEAR=1995
DGENRE=Jazz
TTITLE0=Perk Up
TTITLE1=I Married an Angel
TTITLE2=Seer
TTITLE3=Comeback
TTITLE4=Yesterdays
TTITLE5=Drinkin' and Drivin'
TTITLE6=Bleep
TTITLE7=Bird of Paradise
EXTD=YEAR: 1995
EXTT0=
EXTT1=
EXTT2=
EXTT3=
EXTT4=
EXTT5=
EXTT6=
EXTT7=
PLAYORDER=
